Coordinates
version=1
nRows=6
nColumns=63
inDegrees=yes

Units are S.I. units (second, meters, Newtons, ...)
If the header above contains a line with 'inDegrees', this indicates whether rotational values are in degrees (yes) or radians (no).

endheader
time	pelvis_tilt	pelvis_list	pelvis_rotation	pelvis_tx	pelvis_ty	pelvis_tz	hip_flexion_r	hip_adduction_r	hip_rotation_r	knee_angle_r	knee_angle_r_beta	ankle_angle_r	subtalar_angle_r	mtp_angle_r	hip_flexion_l	hip_adduction_l	hip_rotation_l	knee_angle_l	knee_angle_l_beta	ankle_angle_l	subtalar_angle_l	mtp_angle_l	L5_S1_Flex_Ext	L5_S1_Lat_Bending	L5_S1_axial_rotation	L4_L5_Flex_Ext	L4_L5_Lat_Bending	L4_L5_axial_rotation	L3_L4_Flex_Ext	L3_L4_Lat_Bending	L3_L4_axial_rotation	L2_L3_Flex_Ext	L2_L3_Lat_Bending	L2_L3_axial_rotation	L1_L2_Flex_Ext	L1_L2_Lat_Bending	L1_L2_axial_rotation	L1_T12_Flex_Ext	L1_T12_Lat_Bending	L1_T12_axial_rotation	Abs_r3	Abs_r2	Abs_r1	Abs_t1	Abs_t2	neck_flexion	neck_bending	neck_rotation	arm_flex_r	arm_add_r	arm_rot_r	elbow_flex_r	pro_sup_r	wrist_flex_r	wrist_dev_r	arm_flex_l	arm_add_l	arm_rot_l	elbow_flex_l	pro_sup_l	wrist_flex_l	wrist_dev_l
4.350000	-2.327966	-28.604123	90.255709	0.184148	0.324091	1.106507	59.115567	-6.089593	-5.473190	58.605874	1.022865	54.244367	2.662027	0.000000	61.945615	3.717025	6.229173	57.548074	1.004403	55.447342	-0.745026	0.000000	0.064359	-0.341907	-3.406873	0.119521	-0.454736	-3.619803	0.105735	-0.831312	-3.619803	0.073556	-0.831312	-2.981014	0.059764	-0.697216	-2.768085	0.036775	-0.529613	-2.555155	0.459710	-3.867716	-18.948007	0.000000	0.000000	26.903344	10.580058	16.117924	-422.315913	-104.564889	-796.936786	27.368565	55.855548	-3.670953	6.564980	-18.623936	-69.337811	-5.509632	21.507020	67.560046	-10.825464	3.911554
4.366667	-2.921786	-28.656205	89.925344	0.184079	0.321789	1.105407	59.540894	-6.074167	-4.336572	59.295558	1.034903	54.416291	1.828656	0.000000	62.144400	3.876733	5.469461	58.041068	1.013008	55.763932	-0.407039	0.000000	0.061667	-0.481907	-3.064374	0.114522	-0.640936	-3.255897	0.101313	-1.171708	-3.255897	0.070479	-1.171708	-2.681327	0.057264	-0.982704	-2.489804	0.035237	-0.746473	-2.298280	0.440482	-5.451424	-17.043128	0.000000	0.000000	27.092385	10.791062	12.793198	-432.762881	-105.558506	-806.782566	26.907147	57.423060	-3.026200	7.266358	-20.353287	-69.168065	-11.861907	22.621988	71.861971	-12.172956	5.352039
4.383333	-3.452566	-28.667565	89.566128	0.183867	0.320352	1.103970	59.692504	-6.000105	-3.327552	59.650308	1.041094	54.497483	1.144473	0.000000	62.166293	3.963229	4.758317	58.361227	1.018596	55.997501	-0.140655	0.000000	0.055610	-0.608894	-2.687582	0.103274	-0.809829	-2.855556	0.091362	-1.480465	-2.855556	0.063557	-1.480465	-2.351634	0.051640	-1.241656	-2.183660	0.031776	-0.943177	-2.015686	0.397218	-6.887929	-14.947525	0.000000	0.000000	27.151478	10.743638	9.148032	-443.758902	-106.405106	-817.259017	26.682542	58.202320	-2.480526	7.810193	-18.447395	-69.229971	-6.715125	22.084906	70.735391	-12.667333	6.118070
4.400000	-4.041991	-28.642646	89.142582	0.183776	0.319747	1.102317	59.644211	-5.952464	-2.347563	59.743809	1.042726	54.506255	0.550946	0.000000	62.022275	4.034534	3.980292	58.480663	1.020680	56.141216	0.117989	0.000000	0.050348	-0.741536	-2.292482	0.093502	-0.986243	-2.435762	0.082717	-1.802971	-2.435762	0.057543	-1.802971	-2.005922	0.046753	-1.512140	-1.862642	0.028769	-1.148639	-1.719362	0.359633	-8.388403	-12.750097	0.000000	0.000000	27.161108	10.618266	5.142855	-452.695958	-107.052636	-825.953753	26.797759	58.083984	-2.063802	8.132841	-15.932741	-69.604947	1.335298	21.139122	68.088848	-13.011122	6.592164
4.416667	-4.516400	-28.566096	88.756288	0.183443	0.320011	1.100483	59.334532	-5.866717	-1.531802	59.529053	1.038978	54.416547	0.048362	0.000000	61.722702	4.048856	3.298269	58.432946	1.019847	56.221086	0.338809	0.000000	0.041858	-0.855681	-1.879705	0.077734	-1.138056	-1.997187	0.068768	-2.080504	-1.997187	0.047839	-2.080504	-1.644742	0.038869	-1.744905	-1.527260	0.023918	-1.325450	-1.409779	0.298987	-9.679638	-10.454355	0.000000	0.000000	27.083578	10.323101	0.939793	-461.840007	-107.500498	-835.325106	27.125274	59.744332	-2.149686	8.522336	-12.712371	-70.263704	10.471495	20.094062	65.449054	-13.263046	6.946598
4.433333	-4.898369	-28.464555	88.430805	0.182918	0.321096	1.098530	58.812794	-5.781104	-0.870413	59.037918	1.030406	54.224373	-0.412423	0.000000	61.299816	4.038800	2.695298	58.206987	1.015904	56.216963	0.544608	0.000000	0.035211	-0.953459	-1.466328	0.065390	-1.268100	-1.557974	0.057848	-2.318240	-1.557974	0.040242	-2.318240	-1.283037	0.032697	-1.944293	-1.191392	0.020119	-1.476908	-1.099746	0.251506	-10.785718	-8.155278	0.000000	0.000000	26.986900	9.913928	-3.283097	-469.334577	-107.739596	-843.497833	27.853421	62.028718	-2.547432	9.044781	-9.548025	-71.169260	20.703752	18.865148	60.473854	-13.352884	7.008651
